<?xml version="1.0" encoding="utf-8"?>
<!-- Generator: Adobe Illustrator 27.6.1, SVG Export Plug-In . SVG Version: 6.00 Build 0)  -->
<svg version="1.1" id="Layer_1" xmlns="http://www.w3.org/2000/svg" xmlns:xlink="http://www.w3.org/1999/xlink" x="0px" y="0px"
	 viewBox="0 0 64 64" style="enable-background:new 0 0 64 64;" xml:space="preserve">
<style type="text/css">
	.st0{fill:#272970;}
	.st1{fill:#FFFFFF;}
</style>
<path class="st0" d="M59.51,63H4.49C2.56,63,1,61.44,1,59.51V4.49C1,2.56,2.56,1,4.49,1h55.03C61.44,1,63,2.56,63,4.49v55.03
	C63,61.44,61.44,63,59.51,63z"/>
<g>
	<path class="st1" d="M39.38,52.43c-2.7-2.89-6.4-7.62-9.5-11.25c-0.72-0.86-1.19-1.17-1.71-1.17c-0.24-0.04-0.52,0-0.87,0.08v6.21
		c0,3.79,0.52,4.06,4.29,4.49v1.52H17.91v-1.52c3.94-0.43,4.33-0.82,4.33-4.49V19.42c0-3.71-0.36-4.02-3.94-4.38v-1.37
		c2.78-0.27,6.36-1.21,8.98-1.99V38.6c1.75-0.35,2.7-1.13,3.66-1.99c1.27-1.21,3.06-3.52,4.06-5c1.19-1.72,0.95-2.19-1.75-2.5v-1.56
		l12.4-0.51v1.48c-4.01,0.62-5.53,1.25-7.79,3.32c-1.55,1.44-2.54,2.54-4.97,5.27c1.23,1.76,7.35,8.59,9.22,10.55
		c2.03,2.07,3.7,3.01,5.84,3.12v1.52L39.38,52.43z"/>
</g>
</svg>
