<?xml version="1.0" encoding="utf-8"?>
<!-- Generator: Adobe Illustrator 27.6.1, SVG Export Plug-In . SVG Version: 6.00 Build 0)  -->
<svg version="1.1" id="Layer_1" xmlns="http://www.w3.org/2000/svg" xmlns:xlink="http://www.w3.org/1999/xlink" x="0px" y="0px"
	 viewBox="0 0 16 16" style="enable-background:new 0 0 16 16;" xml:space="preserve">
<style type="text/css">
	.st0{fill:#272970;}
	.st1{fill:#FFFFFF;}
</style>
<path class="st0" d="M14.21,15.5H1.79c-0.71,0-1.29-0.58-1.29-1.29V1.79c0-0.71,0.58-1.29,1.29-1.29h12.42
	c0.71,0,1.29,0.58,1.29,1.29v12.42C15.5,14.92,14.92,15.5,14.21,15.5z"/>
<g>
	<path class="st1" d="M9.63,12.6c-0.6-0.65-1.41-1.71-2.1-2.53C7.37,9.87,7.27,9.8,7.15,9.8c-0.05-0.01-0.11,0-0.19,0.02v1.4
		c0,0.85,0.11,0.91,0.95,1.01v0.34H4.88v-0.34c0.87-0.1,0.96-0.18,0.96-1.01V5.17c0-0.83-0.08-0.91-0.87-0.98V3.88
		C5.59,3.82,6.38,3.6,6.96,3.43v6.06c0.39-0.08,0.6-0.25,0.81-0.45c0.28-0.27,0.68-0.79,0.9-1.13c0.26-0.39,0.21-0.49-0.39-0.56V7
		l2.74-0.11v0.33C10.13,7.36,9.8,7.5,9.3,7.96C8.95,8.29,8.73,8.54,8.2,9.15c0.27,0.4,1.63,1.93,2.04,2.37
		c0.45,0.47,0.82,0.68,1.29,0.7v0.34L9.63,12.6z"/>
</g>
</svg>
